<mxfile host="app.diagrams.net" agent="Mozilla/5.0 (Windows NT 10.0; Win64; x64) AppleWebKit/537.36 (KHTML, like Gecko) Chrome/126.0.0.0 Safari/537.36" version="24.7.5">
  <diagram id="C5RBs43oDa-KdzZeNtuy" name="Page-1">
    <mxGraphModel dx="1434" dy="746" grid="1" gridSize="10" guides="1" tooltips="1" connect="1" arrows="1" fold="1" page="1" pageScale="1" pageWidth="827" pageHeight="1169" math="0" shadow="0">
      <root>
        <mxCell id="WIyWlLk6GJQsqaUBKTNV-0" />
        <mxCell id="WIyWlLk6GJQsqaUBKTNV-1" parent="WIyWlLk6GJQsqaUBKTNV-0" />
        <mxCell id="eO218KbLd0Rn4QueaogS-15" style="edgeStyle=orthogonalEdgeStyle;rounded=0;orthogonalLoop=1;jettySize=auto;html=1;exitX=0.5;exitY=1;exitDx=0;exitDy=0;exitPerimeter=0;entryX=0.5;entryY=0;entryDx=0;entryDy=0;" edge="1" parent="WIyWlLk6GJQsqaUBKTNV-1" source="eO218KbLd0Rn4QueaogS-0" target="eO218KbLd0Rn4QueaogS-1">
          <mxGeometry relative="1" as="geometry" />
        </mxCell>
        <mxCell id="eO218KbLd0Rn4QueaogS-0" value="start" style="strokeWidth=2;html=1;shape=mxgraph.flowchart.start_1;whiteSpace=wrap;" vertex="1" parent="WIyWlLk6GJQsqaUBKTNV-1">
          <mxGeometry x="65" y="30" width="50" height="50" as="geometry" />
        </mxCell>
        <mxCell id="eO218KbLd0Rn4QueaogS-16" style="edgeStyle=orthogonalEdgeStyle;rounded=0;orthogonalLoop=1;jettySize=auto;html=1;exitX=0.5;exitY=1;exitDx=0;exitDy=0;entryX=0.5;entryY=0;entryDx=0;entryDy=0;" edge="1" parent="WIyWlLk6GJQsqaUBKTNV-1" source="eO218KbLd0Rn4QueaogS-1" target="eO218KbLd0Rn4QueaogS-2">
          <mxGeometry relative="1" as="geometry" />
        </mxCell>
        <mxCell id="eO218KbLd0Rn4QueaogS-1" value="create window and set parameters" style="rounded=1;whiteSpace=wrap;html=1;absoluteArcSize=1;arcSize=14;strokeWidth=2;" vertex="1" parent="WIyWlLk6GJQsqaUBKTNV-1">
          <mxGeometry x="40" y="110" width="100" height="100" as="geometry" />
        </mxCell>
        <mxCell id="eO218KbLd0Rn4QueaogS-11" style="edgeStyle=orthogonalEdgeStyle;rounded=0;orthogonalLoop=1;jettySize=auto;html=1;exitX=1;exitY=0.5;exitDx=0;exitDy=0;entryX=0;entryY=0.5;entryDx=0;entryDy=0;" edge="1" parent="WIyWlLk6GJQsqaUBKTNV-1" source="eO218KbLd0Rn4QueaogS-2" target="eO218KbLd0Rn4QueaogS-4">
          <mxGeometry relative="1" as="geometry" />
        </mxCell>
        <mxCell id="eO218KbLd0Rn4QueaogS-12" style="edgeStyle=orthogonalEdgeStyle;rounded=0;orthogonalLoop=1;jettySize=auto;html=1;exitX=1;exitY=0.5;exitDx=0;exitDy=0;entryX=0;entryY=0.5;entryDx=0;entryDy=0;" edge="1" parent="WIyWlLk6GJQsqaUBKTNV-1" source="eO218KbLd0Rn4QueaogS-2" target="eO218KbLd0Rn4QueaogS-5">
          <mxGeometry relative="1" as="geometry" />
        </mxCell>
        <mxCell id="eO218KbLd0Rn4QueaogS-13" style="edgeStyle=orthogonalEdgeStyle;rounded=0;orthogonalLoop=1;jettySize=auto;html=1;exitX=1;exitY=0.5;exitDx=0;exitDy=0;entryX=0;entryY=0.5;entryDx=0;entryDy=0;" edge="1" parent="WIyWlLk6GJQsqaUBKTNV-1" source="eO218KbLd0Rn4QueaogS-2" target="eO218KbLd0Rn4QueaogS-6">
          <mxGeometry relative="1" as="geometry" />
        </mxCell>
        <mxCell id="eO218KbLd0Rn4QueaogS-17" style="edgeStyle=orthogonalEdgeStyle;rounded=0;orthogonalLoop=1;jettySize=auto;html=1;exitX=0.5;exitY=1;exitDx=0;exitDy=0;entryX=0.5;entryY=0;entryDx=0;entryDy=0;" edge="1" parent="WIyWlLk6GJQsqaUBKTNV-1" source="eO218KbLd0Rn4QueaogS-2" target="eO218KbLd0Rn4QueaogS-7">
          <mxGeometry relative="1" as="geometry" />
        </mxCell>
        <mxCell id="eO218KbLd0Rn4QueaogS-2" value="initialize vulkan" style="rounded=1;whiteSpace=wrap;html=1;absoluteArcSize=1;arcSize=14;strokeWidth=2;" vertex="1" parent="WIyWlLk6GJQsqaUBKTNV-1">
          <mxGeometry x="40" y="220" width="100" height="100" as="geometry" />
        </mxCell>
        <mxCell id="eO218KbLd0Rn4QueaogS-4" value="&lt;blockquote style=&quot;margin: 0 0 0 40px; border: none; padding: 0px;&quot;&gt;local init:&lt;/blockquote&gt;&lt;div&gt;&lt;ul&gt;&lt;ul&gt;&lt;li&gt;Descriptor Set Layouts&lt;/li&gt;&lt;li&gt;Vertex Descriptors&lt;/li&gt;&lt;li&gt;Pipelines (Shaders)&lt;/li&gt;&lt;li&gt;Models and Textures&lt;/li&gt;&lt;/ul&gt;&lt;/ul&gt;&lt;/div&gt;" style="rounded=1;whiteSpace=wrap;html=1;absoluteArcSize=1;arcSize=14;strokeWidth=2;align=left;" vertex="1" parent="WIyWlLk6GJQsqaUBKTNV-1">
          <mxGeometry x="190" y="220" width="250" height="140" as="geometry" />
        </mxCell>
        <mxCell id="eO218KbLd0Rn4QueaogS-5" value="&lt;blockquote style=&quot;margin: 0 0 0 40px; border: none; padding: 0px;&quot;&gt;pipelines and descriptor sets init&lt;/blockquote&gt;" style="rounded=1;whiteSpace=wrap;html=1;absoluteArcSize=1;arcSize=14;strokeWidth=2;align=left;" vertex="1" parent="WIyWlLk6GJQsqaUBKTNV-1">
          <mxGeometry x="190" y="370" width="250" height="70" as="geometry" />
        </mxCell>
        <mxCell id="eO218KbLd0Rn4QueaogS-6" value="create and populate command buffers" style="rounded=1;whiteSpace=wrap;html=1;absoluteArcSize=1;arcSize=14;strokeWidth=2;" vertex="1" parent="WIyWlLk6GJQsqaUBKTNV-1">
          <mxGeometry x="190" y="450" width="250" height="60" as="geometry" />
        </mxCell>
        <mxCell id="eO218KbLd0Rn4QueaogS-14" style="edgeStyle=orthogonalEdgeStyle;rounded=0;orthogonalLoop=1;jettySize=auto;html=1;exitX=1;exitY=0.5;exitDx=0;exitDy=0;entryX=0;entryY=0.5;entryDx=0;entryDy=0;" edge="1" parent="WIyWlLk6GJQsqaUBKTNV-1" source="eO218KbLd0Rn4QueaogS-7" target="eO218KbLd0Rn4QueaogS-8">
          <mxGeometry relative="1" as="geometry" />
        </mxCell>
        <mxCell id="eO218KbLd0Rn4QueaogS-18" style="edgeStyle=orthogonalEdgeStyle;rounded=0;orthogonalLoop=1;jettySize=auto;html=1;exitX=0.5;exitY=1;exitDx=0;exitDy=0;entryX=0.5;entryY=0;entryDx=0;entryDy=0;" edge="1" parent="WIyWlLk6GJQsqaUBKTNV-1" source="eO218KbLd0Rn4QueaogS-7" target="eO218KbLd0Rn4QueaogS-10">
          <mxGeometry relative="1" as="geometry" />
        </mxCell>
        <mxCell id="eO218KbLd0Rn4QueaogS-7" value="Main Loop" style="rounded=1;whiteSpace=wrap;html=1;absoluteArcSize=1;arcSize=14;strokeWidth=2;" vertex="1" parent="WIyWlLk6GJQsqaUBKTNV-1">
          <mxGeometry x="40" y="520" width="100" height="100" as="geometry" />
        </mxCell>
        <mxCell id="eO218KbLd0Rn4QueaogS-8" value="Update Uniform Buffers (UBOs) depending on the Scene" style="rounded=1;whiteSpace=wrap;html=1;absoluteArcSize=1;arcSize=14;strokeWidth=2;" vertex="1" parent="WIyWlLk6GJQsqaUBKTNV-1">
          <mxGeometry x="190" y="520" width="250" height="100" as="geometry" />
        </mxCell>
        <mxCell id="eO218KbLd0Rn4QueaogS-9" value="end" style="strokeWidth=2;html=1;shape=mxgraph.flowchart.terminator;whiteSpace=wrap;" vertex="1" parent="WIyWlLk6GJQsqaUBKTNV-1">
          <mxGeometry x="40" y="775" width="100" height="60" as="geometry" />
        </mxCell>
        <mxCell id="eO218KbLd0Rn4QueaogS-10" value="Cleanup" style="rounded=1;whiteSpace=wrap;html=1;absoluteArcSize=1;arcSize=14;strokeWidth=2;" vertex="1" parent="WIyWlLk6GJQsqaUBKTNV-1">
          <mxGeometry x="40" y="630" width="100" height="100" as="geometry" />
        </mxCell>
        <mxCell id="eO218KbLd0Rn4QueaogS-19" style="edgeStyle=orthogonalEdgeStyle;rounded=0;orthogonalLoop=1;jettySize=auto;html=1;exitX=0.5;exitY=1;exitDx=0;exitDy=0;entryX=0.5;entryY=0;entryDx=0;entryDy=0;entryPerimeter=0;" edge="1" parent="WIyWlLk6GJQsqaUBKTNV-1" source="eO218KbLd0Rn4QueaogS-10" target="eO218KbLd0Rn4QueaogS-9">
          <mxGeometry relative="1" as="geometry" />
        </mxCell>
      </root>
    </mxGraphModel>
  </diagram>
</mxfile>
